name rise34.3697peak60.0498fall86.3158.mot
datacolumns 19
datarows 27
range 6.99163900000000 7.03497500000000
endheader
time	ground_force1_vx	ground_force1_vy	ground_force1_vz	ground_force1_px	ground_force1_py	ground_force1_pz	ground_force2_vx	ground_force2_vy	ground_force2_vz	ground_force2_px	ground_force2_py	ground_force2_pz	ground_torque1_x	ground_torque1_y	ground_torque1_z	ground_torque2_x	ground_torque2_y	ground_torque2_z	
6.99163900000000	12.28078300000000	672.90429900000004	38.63943500000000	0.32192500000000	0.00000000000000	0.11337000000000	0.00000000000000	0.00000000000000	0.00000000000000	0.00000000000000	0.00000000000000	0.00000000000000	0.00000000000000	21.69870400000000	0.00000000000000	0.00000000000000	0.00000000000000	0.00000000000000	
6.99330300000000	11.87289300000000	672.89533100000006	38.64608600000000	0.32083600000000	0.00000000000000	0.11340900000000	0.00000000000000	0.00000000000000	0.00000000000000	0.00000000000000	0.00000000000000	0.00000000000000	0.00000000000000	21.75406400000000	0.00000000000000	0.00000000000000	0.00000000000000	0.00000000000000	
6.99496900000000	11.45576700000000	672.94121299999995	38.65634700000000	0.31977400000000	0.00000000000000	0.11344500000000	0.00000000000000	0.00000000000000	0.00000000000000	0.00000000000000	0.00000000000000	0.00000000000000	0.00000000000000	21.81661400000000	0.00000000000000	0.00000000000000	0.00000000000000	0.00000000000000	
6.99663900000000	11.02902000000000	673.04147599999999	38.66990900000000	0.31874100000000	0.00000000000000	0.11348000000000	0.00000000000000	0.00000000000000	0.00000000000000	0.00000000000000	0.00000000000000	0.00000000000000	0.00000000000000	21.88612400000000	0.00000000000000	0.00000000000000	0.00000000000000	0.00000000000000	
6.99830400000000	10.59227800000000	673.19573800000001	38.68648200000000	0.31773400000000	0.00000000000000	0.11351100000000	0.00000000000000	0.00000000000000	0.00000000000000	0.00000000000000	0.00000000000000	0.00000000000000	0.00000000000000	21.96236700000000	0.00000000000000	0.00000000000000	0.00000000000000	0.00000000000000	
6.99997600000000	10.14518500000000	673.40370600000006	38.70579500000000	0.31675500000000	0.00000000000000	0.11354100000000	0.00000000000000	0.00000000000000	0.00000000000000	0.00000000000000	0.00000000000000	0.00000000000000	0.00000000000000	22.04512100000000	0.00000000000000	0.00000000000000	0.00000000000000	0.00000000000000	
7.00164000000000	9.68740100000000	673.66518199999996	38.72759900000000	0.31580200000000	0.00000000000000	0.11356800000000	0.00000000000000	0.00000000000000	0.00000000000000	0.00000000000000	0.00000000000000	0.00000000000000	0.00000000000000	22.13416800000000	0.00000000000000	0.00000000000000	0.00000000000000	0.00000000000000	
7.00330500000000	9.21860100000000	673.98006299999997	38.75166700000000	0.31487600000000	0.00000000000000	0.11359300000000	0.00000000000000	0.00000000000000	0.00000000000000	0.00000000000000	0.00000000000000	0.00000000000000	0.00000000000000	22.22929600000000	0.00000000000000	0.00000000000000	0.00000000000000	0.00000000000000	
7.00497000000000	8.73848100000000	674.34834300000000	38.77779500000000	0.31397400000000	0.00000000000000	0.11361600000000	0.00000000000000	0.00000000000000	0.00000000000000	0.00000000000000	0.00000000000000	0.00000000000000	0.00000000000000	22.33029600000000	0.00000000000000	0.00000000000000	0.00000000000000	0.00000000000000	
7.00663900000000	8.24675500000000	674.77010900000005	38.80580000000000	0.31309800000000	0.00000000000000	0.11363600000000	0.00000000000000	0.00000000000000	0.00000000000000	0.00000000000000	0.00000000000000	0.00000000000000	0.00000000000000	22.43696500000000	0.00000000000000	0.00000000000000	0.00000000000000	0.00000000000000	
7.00830400000000	7.74316000000000	675.24554699999999	38.83552400000000	0.31224400000000	0.00000000000000	0.11365400000000	0.00000000000000	0.00000000000000	0.00000000000000	0.00000000000000	0.00000000000000	0.00000000000000	0.00000000000000	22.54910700000000	0.00000000000000	0.00000000000000	0.00000000000000	0.00000000000000	
7.00997800000000	7.22745200000000	675.77493400000003	38.86683100000000	0.31141300000000	0.00000000000000	0.11366900000000	0.00000000000000	0.00000000000000	0.00000000000000	0.00000000000000	0.00000000000000	0.00000000000000	0.00000000000000	22.66653100000000	0.00000000000000	0.00000000000000	0.00000000000000	0.00000000000000	
7.01163600000000	6.69941300000000	676.35864200000003	38.89961000000000	0.31060400000000	0.00000000000000	0.11368300000000	0.00000000000000	0.00000000000000	0.00000000000000	0.00000000000000	0.00000000000000	0.00000000000000	0.00000000000000	22.78904900000000	0.00000000000000	0.00000000000000	0.00000000000000	0.00000000000000	
7.01330400000000	6.15884600000000	676.99712899999997	38.93377300000000	0.30981500000000	0.00000000000000	0.11369400000000	0.00000000000000	0.00000000000000	0.00000000000000	0.00000000000000	0.00000000000000	0.00000000000000	0.00000000000000	22.91648400000000	0.00000000000000	0.00000000000000	0.00000000000000	0.00000000000000	
7.01497400000000	5.60558200000000	677.69093699999996	38.96925600000000	0.30904500000000	0.00000000000000	0.11370300000000	0.00000000000000	0.00000000000000	0.00000000000000	0.00000000000000	0.00000000000000	0.00000000000000	0.00000000000000	23.04865900000000	0.00000000000000	0.00000000000000	0.00000000000000	0.00000000000000	
7.01663900000000	5.03947700000000	678.44069100000002	39.00601900000000	0.30829300000000	0.00000000000000	0.11371000000000	0.00000000000000	0.00000000000000	0.00000000000000	0.00000000000000	0.00000000000000	0.00000000000000	0.00000000000000	23.18540900000000	0.00000000000000	0.00000000000000	0.00000000000000	0.00000000000000	
7.01830600000000	4.46041400000000	679.24708699999996	39.04404500000000	0.30755700000000	0.00000000000000	0.11371500000000	0.00000000000000	0.00000000000000	0.00000000000000	0.00000000000000	0.00000000000000	0.00000000000000	0.00000000000000	23.32656800000000	0.00000000000000	0.00000000000000	0.00000000000000	0.00000000000000	
7.01997000000000	3.86830300000000	680.11089100000004	39.08334100000000	0.30683600000000	0.00000000000000	0.11371800000000	0.00000000000000	0.00000000000000	0.00000000000000	0.00000000000000	0.00000000000000	0.00000000000000	0.00000000000000	23.47198200000000	0.00000000000000	0.00000000000000	0.00000000000000	0.00000000000000	
7.02163800000000	3.26308600000000	681.03292999999996	39.12393400000000	0.30612900000000	0.00000000000000	0.11371900000000	0.00000000000000	0.00000000000000	0.00000000000000	0.00000000000000	0.00000000000000	0.00000000000000	0.00000000000000	23.62149900000000	0.00000000000000	0.00000000000000	0.00000000000000	0.00000000000000	
7.02330600000000	2.64473300000000	682.01408400000003	39.16587600000000	0.30543300000000	0.00000000000000	0.11371900000000	0.00000000000000	0.00000000000000	0.00000000000000	0.00000000000000	0.00000000000000	0.00000000000000	0.00000000000000	23.77497300000000	0.00000000000000	0.00000000000000	0.00000000000000	0.00000000000000	
7.02497100000000	2.01324400000000	683.05527900000004	39.20924200000000	0.30474700000000	0.00000000000000	0.11371700000000	0.00000000000000	0.00000000000000	0.00000000000000	0.00000000000000	0.00000000000000	0.00000000000000	0.00000000000000	23.93226400000000	0.00000000000000	0.00000000000000	0.00000000000000	0.00000000000000	
7.02664300000000	1.36865400000000	684.15747599999997	39.25412400000000	0.30407000000000	0.00000000000000	0.11371400000000	0.00000000000000	0.00000000000000	0.00000000000000	0.00000000000000	0.00000000000000	0.00000000000000	0.00000000000000	24.09323500000000	0.00000000000000	0.00000000000000	0.00000000000000	0.00000000000000	
7.02830600000000	0.71102800000000	685.32166400000006	39.30063800000000	0.30340000000000	0.00000000000000	0.11370900000000	0.00000000000000	0.00000000000000	0.00000000000000	0.00000000000000	0.00000000000000	0.00000000000000	0.00000000000000	24.25775800000000	0.00000000000000	0.00000000000000	0.00000000000000	0.00000000000000	
7.02997700000000	0.04046300000000	686.54884800000002	39.34891800000000	0.30273600000000	0.00000000000000	0.11370300000000	0.00000000000000	0.00000000000000	0.00000000000000	0.00000000000000	0.00000000000000	0.00000000000000	0.00000000000000	24.42570400000000	0.00000000000000	0.00000000000000	0.00000000000000	0.00000000000000	
7.03163700000000	-0.64290800000000	687.84004100000004	39.39912000000000	0.30207500000000	0.00000000000000	0.11369700000000	0.00000000000000	0.00000000000000	0.00000000000000	0.00000000000000	0.00000000000000	0.00000000000000	0.00000000000000	24.59695400000000	0.00000000000000	0.00000000000000	0.00000000000000	0.00000000000000	
7.03330500000000	-1.33891900000000	689.19624999999996	39.45141500000000	0.30141700000000	0.00000000000000	0.11368900000000	0.00000000000000	0.00000000000000	0.00000000000000	0.00000000000000	0.00000000000000	0.00000000000000	0.00000000000000	24.77138800000000	0.00000000000000	0.00000000000000	0.00000000000000	0.00000000000000	
7.03497500000000	-2.04737000000000	690.61846500000001	39.50599200000000	0.30075800000000	0.00000000000000	0.11368000000000	0.00000000000000	0.00000000000000	0.00000000000000	0.00000000000000	0.00000000000000	0.00000000000000	0.00000000000000	24.94889400000000	0.00000000000000	0.00000000000000	0.00000000000000	0.00000000000000	
